<?xml version="1.0" encoding="UTF-8"?>
<svg width="18px" height="18px" viewBox="0 0 18 18" version="1.1" xmlns="http://www.w3.org/2000/svg" xmlns:xlink="http://www.w3.org/1999/xlink">
    <title>ic-search</title>
    <defs></defs>
    <g id="Artboard-4" stroke="none" stroke-width="1" fill="none" fill-rule="evenodd" transform="translate(-4.000000, -4.000000)">
        <path d="M16.502,10.491 L15.708,10.491 L15.432,10.765 C16.407,11.902 17,13.376 17,14.991 C17,18.581 14.09,21.491 10.5,21.491 C6.91,21.491 4,18.581 4,14.991 C4,11.401 6.91,8.491 10.5,8.491 C12.115,8.491 13.588,9.083 14.725,10.057 L15.001,9.783 L15.001,8.991 L19.999,4 L21.49,5.491 L16.502,10.491 L16.502,10.491 Z M10.5,10.491 C8.014,10.491 6,12.505 6,14.991 C6,17.476 8.014,19.491 10.5,19.491 C12.985,19.491 15,17.476 15,14.991 C15,12.505 12.985,10.491 10.5,10.491 L10.5,10.491 Z" id="Shape" fill="#89DBFF" transform="translate(12.745000, 12.745500) scale(1, -1) translate(-12.745000, -12.745500) "></path>
    </g>
</svg>