<svg xmlns="http://www.w3.org/2000/svg" xmlns:xlink="http://www.w3.org/1999/xlink" viewBox="0 0 990 375"><defs><style>.cls-1{fill:none;}.cls-2,.cls-4,.cls-7{fill:#fff;}.cls-3,.cls-6{fill:#909090;}.cls-4,.cls-6{font-size:217.22px;font-family:MeiryoUI, Meiryo UI;letter-spacing:0.2em;}.cls-5{clip-path:url(#clip-path);}.cls-7{font-size:34.5px;font-family:GillSansMT, Gill Sans MT;}</style><clipPath id="clip-path"><polygon class="cls-1" points="763.59 233.86 763.59 258 725.27 258 725.27 172.5 505.59 233.86 505.59 258 467.27 258 467.27 172.5 247.59 233.86 247.59 258 209.27 258 209.27 172.5 -10.41 233.86 -10.41 307.5 64.93 307.5 209.27 307.5 247.59 307.5 467.27 307.5 505.59 307.5 725.27 307.5 763.59 307.5 868.93 307.5 1002.43 307.5 983.27 172.5 763.59 233.86"/></clipPath></defs><title>白色LOGO</title><g id="圖層_3" data-name="圖層 3"><rect class="cls-2" x="17.6" y="17" width="19.33" height="23.33"/><rect class="cls-2" x="72.66" y="17" width="19.33" height="23.33"/><rect class="cls-2" x="127.72" y="17" width="19.33" height="23.33"/><rect class="cls-2" x="182.77" y="17" width="19.33" height="23.33"/><rect class="cls-2" x="237.83" y="17" width="19.33" height="23.33"/><rect class="cls-2" x="292.89" y="17" width="19.33" height="23.33"/><rect class="cls-2" x="347.95" y="17" width="19.33" height="23.33"/><rect class="cls-2" x="403.01" y="17" width="19.33" height="23.33"/><rect class="cls-2" x="458.07" y="17" width="19.33" height="23.33"/><rect class="cls-2" x="513.13" y="17" width="19.33" height="23.33"/><rect class="cls-2" x="568.19" y="17" width="19.33" height="23.33"/><rect class="cls-2" x="623.25" y="17" width="19.33" height="23.33"/><rect class="cls-2" x="678.3" y="17" width="19.33" height="23.33"/><rect class="cls-2" x="733.36" y="17" width="19.33" height="23.33"/><rect class="cls-2" x="788.42" y="17" width="19.33" height="23.33"/><rect class="cls-2" x="843.48" y="17" width="19.33" height="23.33"/><rect class="cls-2" x="898.54" y="17" width="19.33" height="23.33"/><rect class="cls-2" x="953.6" y="17" width="19.33" height="23.33"/><rect class="cls-3" x="17.6" y="339.67" width="19.33" height="23.33"/><rect class="cls-3" x="72.66" y="339.67" width="19.33" height="23.33"/><rect class="cls-3" x="127.72" y="339.67" width="19.33" height="23.33"/><rect class="cls-3" x="182.77" y="339.67" width="19.33" height="23.33"/><rect class="cls-3" x="237.83" y="339.67" width="19.33" height="23.33"/><rect class="cls-3" x="292.89" y="339.67" width="19.33" height="23.33"/><rect class="cls-3" x="678.3" y="339.67" width="19.33" height="23.33"/><rect class="cls-3" x="733.36" y="339.67" width="19.33" height="23.33"/><rect class="cls-3" x="788.42" y="339.67" width="19.33" height="23.33"/><rect class="cls-3" x="843.48" y="339.67" width="19.33" height="23.33"/><rect class="cls-3" x="898.54" y="339.67" width="19.33" height="23.33"/><rect class="cls-3" x="953.6" y="339.67" width="19.33" height="23.33"/><text class="cls-4" transform="translate(-10.07 273.54)">日日好影</text></g><g id="圖層_5" data-name="圖層 5"><g class="cls-5"><text class="cls-6" transform="translate(-10.07 273.54)">日日好影</text></g></g><g id="圖層_4" data-name="圖層 4"><text class="cls-7" transform="translate(450.71 361.76)">W</text><text class="cls-7" transform="translate(518.21 361.76)">I</text><text class="cls-7" transform="translate(562.96 361.76)">N</text><text class="cls-7" transform="translate(619.71 361.76)">G</text><text class="cls-7" transform="translate(345.21 361.76)">H</text><text class="cls-7" transform="translate(398.21 361.76)">O</text></g></svg>